<?xml version="1.0" encoding="UTF-8"?>
<svg xmlns="http://www.w3.org/2000/svg" width="1202" height="1201" class="styles_treeRings__2t2mF" viewBox="0 0 1202 1201" fill="none">
  <g opacity="0.08">
    <path d="M615.383 1059.13C679.338 1050.3 740.173 1027.28 802.256 1011.21C838.758 1001.75 868.707 978.735 891.482 947.209C921.743 905.28 954.813 865.558 982.89 822.053C1005.66 786.429 1015.65 743.554 1035.3 706.038C1052.15 673.882 1054.33 639.519 1051.53 605.156C1049.34 577.098 1042.79 549.355 1036.55 521.613C1025.63 473.694 1014.09 425.775 995.682 379.747C986.01 355.788 973.531 333.72 955.125 315.12C941.086 300.933 927.671 286.116 914.568 270.984C879.314 230.631 834.39 206.356 785.098 189.017C740.485 173.254 695.249 160.013 647.828 157.807C623.494 156.545 599.784 163.166 576.074 168.525C491.84 187.756 409.166 212.031 334.292 257.112C301.847 276.658 273.145 301.248 251.93 332.774C224.789 372.812 195.151 411.588 173.624 455.409C158.65 485.358 152.41 517.199 146.794 549.986C141.491 582.142 140.867 614.298 144.299 646.139C150.85 705.092 163.017 762.154 198.583 811.649C225.724 849.48 251.93 887.941 280.008 924.826C296.543 946.579 319.941 960.765 343.651 974.006C389.512 1000.17 436.62 1023.82 485.913 1042.73C522.726 1056.92 561.411 1064.17 601.344 1058.81C603.528 1058.5 606.023 1057.86 607.583 1058.81C626.302 1072.68 646.268 1061.02 665.299 1061.02C687.137 1061.02 708.975 1059.44 730.814 1060.39C771.059 1061.96 805.376 1047.15 836.886 1023.82C887.426 985.986 927.047 937.121 966.356 888.256C986.01 863.666 1006.91 839.707 1025.94 814.486C1051.84 780.123 1063.07 740.716 1069 699.102C1078.67 632.583 1069.93 565.749 1070.24 498.914C1070.56 435.548 1038.11 389.205 1006.29 341.286C978.523 299.672 946.701 261.211 914.256 223.065C895.225 200.681 868.395 189.332 842.813 177.352C798.513 156.23 752.34 139.206 705.544 125.966C671.85 116.508 636.909 118.715 602.592 128.172C553.611 141.728 507.439 163.481 457.523 174.2C440.988 177.668 424.141 178.929 407.607 183.342C372.977 192.485 344.899 212.661 319.005 235.99C273.145 276.974 235.084 324.577 202.326 376.279C182.984 407.175 168.009 440.907 151.162 473.379C138.059 498.914 138.371 526.026 133.068 552.508C131.196 562.596 129.636 572.684 126.828 582.457C114.973 621.864 120.9 660.641 130.26 699.102C142.739 748.282 159.897 795.886 186.415 839.392C205.134 869.972 226.348 899.606 248.811 927.664C279.072 965.494 312.766 1000.17 354.571 1025.71C413.534 1061.96 475.929 1082.45 546.436 1072.05C567.962 1068.9 590.113 1068.58 611.951 1065.12" stroke="#1f3b21" stroke-miterlimit="10" stroke-linecap="round" stroke-linejoin="round"></path>
    <path d="M780.729 1166.63C798.824 1162.85 816.918 1159.38 835.325 1157.17C863.403 1154.02 888.361 1144.25 908.639 1123.75C936.093 1096.33 962.299 1067.32 991.625 1042.1C1020.01 1017.83 1043.72 989.769 1070.55 964.233C1092.71 943.111 1105.81 915.053 1120.47 888.572C1133.26 865.558 1151.36 845.382 1155.1 817.639C1156.35 808.181 1160.4 799.354 1158.22 789.266C1156.35 780.439 1158.53 772.242 1163.84 764.045C1181.93 736.303 1187.23 703.831 1195.03 672.621C1206.89 624.071 1197.84 574.891 1195.35 526.027C1193.47 493.555 1185.99 461.084 1193.79 428.297C1195.35 422.307 1191.29 417.578 1189.11 412.534C1174.44 378.802 1159.78 345.384 1145.43 311.652C1129.83 274.767 1098.94 247.655 1081.79 212.346C1064.63 176.407 1036.55 149.295 1008.16 123.444C973.842 92.2333 932.038 73.3179 886.801 63.2297C871.202 59.7618 855.603 55.3482 841.564 47.4668C826.278 38.9549 809.119 39.5854 792.896 35.8023C750.779 26.0294 708.663 16.2564 666.858 4.5919C630.357 -5.49631 597.287 4.90716 563.906 15.9411C549.555 20.67 535.828 26.6599 520.229 25.3989C512.43 24.7683 506.502 30.1277 499.951 32.965C477.176 43.0532 453.466 51.2499 435.683 70.7958C429.756 77.4162 420.085 80.884 411.037 78.6772C387.015 73.0026 365.801 84.0366 343.962 90.3417C329.924 94.4401 316.197 99.1689 301.846 99.1689C296.854 99.1689 293.11 101.376 289.367 103.898C262.849 121.237 236.955 139.522 217.612 165.373C194.838 195.638 168.632 222.119 138.058 244.187C122.459 255.536 115.284 272.875 105.301 288.323C89.7019 312.598 80.0306 340.34 63.8079 364.3C55.0726 377.225 53.8247 394.565 48.2091 409.697C37.2899 439.331 20.7552 466.128 9.83601 496.077C1.41265 519.091 0.164749 542.105 1.41265 565.749C2.03661 575.207 2.66056 584.664 2.34858 594.122C0.164748 645.194 9.52403 695.004 14.2037 745.445C18.5713 793.995 38.5378 838.131 66.6157 877.853C67.5516 879.114 69.4235 879.745 69.7354 881.006C78.7827 931.131 122.771 954.145 150.849 989.769C162.08 1003.96 175.183 1017.2 184.855 1032.64C195.15 1049.04 208.565 1061.33 224.164 1071.74C250.37 1089.39 276.576 1106.41 306.525 1118.08C341.155 1131.63 373.6 1150.87 408.23 1164.74C425.388 1171.67 442.859 1175.46 461.265 1177.66C483.728 1180.5 506.19 1186.17 528.34 1191.53C574.201 1202.88 619.749 1203.51 665.61 1193.11C676.217 1190.9 690.568 1192.16 701.487 1191.22C701.175 1191.53 753.899 1172.3 780.729 1166.63Z" stroke="#1f3b21" stroke-miterlimit="10" stroke-linecap="round" stroke-linejoin="round"></path>
    <path d="M272.209 685.55C295.295 726.533 311.83 770.669 337.724 810.076C367.05 855.158 407.295 884.477 457.835 899.924C499.016 912.535 540.509 923.569 584.185 923.569C638.157 923.569 689.009 913.48 732.374 877.856C741.421 870.605 751.093 864.931 762.012 860.202C810.368 839.395 841.566 801.249 863.404 754.591C882.435 714.238 895.538 671.994 896.162 626.912C897.098 573.318 903.961 519.725 895.226 466.131C887.114 417.266 861.532 380.696 820.039 356.106C762.324 321.743 701.488 294.001 635.973 278.868C594.792 269.411 553.924 269.726 515.862 292.74C488.097 309.763 456.587 316.699 425.389 324.265C423.829 324.581 422.27 325.211 420.71 325.842C391.072 340.343 359.562 352.323 333.668 373.445C314.638 388.578 303.095 410.015 290.927 431.137C274.081 460.771 261.29 491.667 252.554 524.453C242.883 561.338 244.131 598.539 247.251 636.37C250.995 684.919 262.85 730.947 282.504 774.767C300.599 814.805 324.933 850.429 367.986 868.083C397.623 880.063 424.141 896.772 447.54 918.524C470.938 940.277 499.016 947.528 530.213 948.789C583.873 950.996 635.349 937.44 687.761 929.874C744.229 921.677 786.034 890.151 823.783 849.483C853.109 817.958 878.379 782.964 905.833 749.862C922.368 730.316 926.735 705.411 929.231 680.506C933.599 638.261 933.911 595.386 934.535 552.827C935.159 523.508 927.983 496.08 918.312 469.283C909.265 443.748 898.969 418.527 888.674 393.622C874.011 358.313 846.245 337.821 812.24 324.265C780.418 311.34 745.477 302.828 717.399 282.967C671.539 250.495 621.622 250.18 570.146 257.116C529.589 262.79 491.528 276.661 457.835 301.252C447.228 309.133 433.189 311.655 425.077 323.004" stroke="#1f3b21" stroke-miterlimit="10" stroke-linecap="round" stroke-linejoin="round"></path>
    <path d="M704.295 642.985C719.582 622.494 710.534 601.056 703.359 581.825C696.495 563.541 685.888 545.886 674.969 529.178C658.746 505.218 635.66 494.499 609.142 491.977C577.944 488.825 547.059 493.238 517.109 503.957C494.959 511.838 487.783 531.069 479.984 549.985C472.497 567.639 468.129 585.609 471.873 605.154C473.121 611.775 472.497 618.711 471.873 625.646C469.377 650.867 478.112 671.358 498.703 685.23C539.259 712.972 583.56 725.267 632.852 715.179C647.515 712.342 658.122 704.46 664.05 689.959C671.849 671.358 683.08 655.28 701.487 645.823" stroke="#1f3b21" stroke-miterlimit="10" stroke-linecap="round" stroke-linejoin="round"></path>
    <path d="M489.033 590.967C485.913 636.364 507.127 668.836 543.628 691.534C582.625 715.809 622.246 704.145 654.38 668.205C695.56 621.863 682.457 584.347 647.828 536.113C627.238 507.424 597.6 495.129 562.347 504.587C525.846 514.36 501.2 537.374 492.153 575.205C490.905 579.933 489.969 584.662 489.033 589.391" stroke="#1f3b21" stroke-miterlimit="10" stroke-linecap="round" stroke-linejoin="round"></path>
    <path d="M442.234 578.359C444.418 622.495 456.585 662.848 480.919 700.048C485.598 706.984 489.966 713.919 495.27 720.225C513.988 742.608 537.698 748.598 565.464 740.716C590.11 734.096 614.445 728.106 640.338 735.357C654.377 739.455 666.544 729.682 676.216 718.648C705.541 685.231 719.58 644.878 727.692 602.003C734.243 567.325 719.268 539.898 697.742 515.307C671.536 485.358 635.971 468.965 601.03 452.571C587.927 446.581 573.264 450.995 560.785 455.724C533.643 465.812 507.125 477.477 488.406 502.382C478.735 515.307 465.008 525.08 454.713 537.691C445.978 548.725 443.794 562.911 441.922 576.783" stroke="#1f3b21" stroke-miterlimit="10" stroke-linecap="round" stroke-linejoin="round"></path>
    <path d="M393.878 341.92C382.647 357.682 364.865 365.879 351.45 379.435C313.388 418.527 291.55 465.185 281.255 518.463C274.079 555.979 264.408 592.864 256.921 630.38C254.113 643.936 260.04 657.176 264.72 669.787C265.656 671.993 265.656 673.885 265.968 676.092" stroke="#1f3b21" stroke-miterlimit="10" stroke-linecap="round" stroke-linejoin="round"></path>
    <path d="M629.425 630.377C641.28 612.723 644.4 594.753 632.857 575.207C621.626 556.291 604.155 548.094 584.188 547.464C564.534 546.833 551.119 559.444 542.071 576.783C532.712 594.438 534.584 610.516 546.751 625.648" stroke="#1f3b21" stroke-miterlimit="10" stroke-linecap="round" stroke-linejoin="round"></path>
    <path d="M587.303 630.376C591.983 628.8 596.662 626.908 601.342 625.647C621.932 619.972 628.796 596.959 613.821 581.511C595.102 562.28 584.807 564.172 571.704 576.782C554.546 593.175 557.042 614.298 578.256 626.908C580.128 628.169 582.624 630.691 585.743 630.376" stroke="#1f3b21" stroke-miterlimit="10" stroke-linecap="round" stroke-linejoin="round"></path>
    <path d="M552.988 631.952C580.13 652.444 601.968 655.911 626.302 633.528" stroke="#1f3b21" stroke-miterlimit="10" stroke-linecap="round" stroke-linejoin="round"></path>
    <path d="M595.105 207.936C561.1 212.034 527.718 218.655 495.273 230.319C448.788 246.712 403.24 265.628 362.683 294.947C350.828 303.459 341.469 314.493 332.733 326.157C311.207 355.476 284.065 379.12 255.051 400.243C219.486 426.409 204.199 463.294 202.327 505.854C200.143 558.501 198.583 610.834 199.519 663.482C200.143 704.781 207.007 745.764 221.67 785.171C227.909 801.88 239.452 810.707 252.243 819.219C273.77 833.405 289.368 850.745 303.095 874.074C330.861 921.362 372.666 955.725 420.711 981.891C438.805 991.98 458.148 985.359 476.866 984.413C486.849 983.783 495.585 984.729 504.944 987.881C559.54 1007.11 614.76 1014.36 671.851 999.546C677.779 997.969 684.331 996.708 688.698 993.871C713.968 978.424 742.046 974.01 770.124 967.389C791.962 962.345 811.929 951.311 827.528 935.864C874.012 890.152 918.625 842.548 946.703 781.703C971.349 728.11 987.26 672.624 987.26 613.041C987.26 599.8 987.884 586.875 988.819 573.634C992.251 529.813 981.02 489.145 965.421 449.107C945.767 398.982 920.185 353.269 879.628 316.384C854.046 293.055 824.408 278.553 790.403 277.923C764.196 277.292 744.542 266.258 724.887 252.072C713.032 243.56 701.177 235.048 689.01 226.851C660.932 207.936 629.111 206.675 596.977 207.936" stroke="#1f3b21" stroke-miterlimit="10" stroke-linecap="round" stroke-linejoin="round"></path>
    <path d="M604.464 185.867C563.595 190.281 523.35 197.216 484.353 211.088C421.958 233.786 362.683 263.735 318.382 314.177C285.001 352.323 246.94 385.425 212.934 422.625C190.16 447.53 176.745 476.849 170.193 510.581C164.578 539.27 164.578 567.643 166.762 595.701C171.441 656.23 175.185 717.39 195.463 775.397C204.511 800.933 221.357 821.425 236.332 842.862C251.619 864.93 267.842 886.367 284.689 907.49C310.271 939.331 342.092 963.29 378.281 981.575C402.928 994.185 428.51 1004.9 452.844 1018.14C472.498 1028.55 493.401 1028.86 513.679 1028.55C579.818 1027.29 645.957 1025.71 711.784 1020.35C760.14 1016.57 800.073 993.239 832.207 955.093C861.532 920.415 894.602 888.889 925.176 855.472C943.582 835.611 961.365 815.119 978.212 793.997C1004.73 761.211 1010.66 721.173 1014.4 680.505C1020.02 620.921 1010.66 561.653 1009.1 502.385C1008.79 482.839 998.802 464.869 991.003 447.215C967.916 395.198 941.398 345.072 910.201 297.153C895.226 274.139 872.764 267.834 850.301 259.952C814.736 247.657 778.547 237.884 742.982 226.22C718.335 218.023 693.065 210.457 669.979 199.108C649.077 189.02 628.174 184.921 605.712 185.552" stroke="#1f3b21" stroke-miterlimit="10" stroke-linecap="round" stroke-linejoin="round"></path>
    <path d="M657.5 88.1374C601.968 95.7035 550.804 118.402 498.392 136.687C469.378 147.09 439.428 154.341 407.919 156.233C380.465 157.494 358.627 173.257 338.036 189.335C280.009 234.417 233.212 289.902 191.095 349.8C157.09 398.665 134.316 452.574 123.085 510.581C113.725 560.077 100.934 609.572 97.5025 660.328C92.5109 735.359 107.174 805.662 155.218 864.93C215.118 939.015 284.376 1003.64 359.251 1062.28C394.192 1089.71 435.373 1100.11 477.801 1106.1C524.598 1112.72 570.458 1102.95 616.631 1095.7C641.901 1091.6 667.483 1087.5 693.065 1088.13C757.332 1089.39 815.36 1070.79 869.332 1037.06C963.86 978.422 1038.42 900.869 1089.27 800.618C1107.37 764.678 1118.91 726.217 1120.47 685.549C1120.78 675.461 1121.1 665.372 1118.91 655.6C1110.18 618.714 1112.36 580.884 1109.87 543.683C1107.06 501.754 1103.31 460.14 1093.02 419.157C1083.97 383.848 1064 356.106 1041.23 329.309C1004.11 285.803 966.98 242.613 924.239 204.782C866.836 154.026 804.752 111.466 729.254 92.8662C706.168 87.1916 682.458 88.1374 659.06 88.1374" stroke="#1f3b21" stroke-miterlimit="10" stroke-linecap="round" stroke-linejoin="round"></path>
    <path d="M588.867 587.818C582.315 591.286 573.892 594.123 576.7 603.581C578.572 609.571 582.315 616.191 591.986 614.93C600.722 613.984 603.841 608.31 604.153 602.004C604.465 593.808 600.098 587.502 590.427 587.818" stroke="#1f3b21" stroke-miterlimit="10" stroke-linecap="round" stroke-linejoin="round"></path>
    <path d="M621.62 237.882C586.991 240.719 552.673 246.079 518.668 253.33C457.209 266.57 403.237 293.998 358 338.449C333.666 362.408 304.028 380.378 280.006 404.653C238.825 446.582 218.859 497.338 217.611 555.976C216.987 581.197 214.179 606.102 215.739 631.638C217.611 666.631 222.914 699.733 239.449 730.944C264.407 778.547 289.365 825.521 326.803 864.928C383.582 924.511 451.593 960.135 533.019 968.647C613.821 976.844 693.063 971.8 768.561 937.122C801.007 922.305 827.212 900.867 847.179 869.657C868.081 837.185 893.975 807.551 916.75 776.341C932.66 754.588 947.011 731.574 956.059 705.408C960.738 692.167 961.362 677.98 961.986 664.424C964.482 595.068 960.738 526.027 940.148 459.507C916.438 382.9 868.393 328.676 792.583 299.672C762.009 288.008 732.372 273.506 706.166 252.069C689.631 238.512 666.857 238.197 645.642 237.251C638.467 236.936 630.979 237.251 623.804 237.251" stroke="#1f3b21" stroke-miterlimit="10" stroke-linecap="round" stroke-linejoin="round"></path>
    <path d="M641.902 66.0653C626.927 68.2721 611.64 69.5331 596.665 72.6857C568.276 78.3603 542.381 89.3943 520.231 108.625C497.457 128.486 469.691 134.791 440.677 136.998C417.279 138.89 393.881 140.151 370.483 143.618C329.302 149.293 294.36 168.839 264.723 197.212C189.536 268.775 137.748 355.786 100.623 452.255C91.8879 475.269 84.7124 498.282 81.2807 523.188C79.7208 534.537 81.2807 545.571 82.2166 556.29C84.4004 577.412 81.5926 596.958 73.7932 616.188C49.7711 677.979 56.0106 737.878 81.5926 797.776C96.5675 832.455 119.342 861.458 143.988 889.201C186.729 937.435 226.35 988.507 273.77 1032.33C311.831 1067.32 352.7 1099.16 401.68 1117.45C422.895 1125.33 446.293 1125.96 468.755 1128.8C488.098 1131 507.128 1133.84 524.911 1141.72C562.66 1158.12 601.969 1160.01 641.902 1155.59C683.707 1151.18 724.576 1142.35 765.132 1132.26C777.612 1129.11 788.843 1124.38 797.89 1114.92C802.57 1109.88 808.809 1105.78 813.489 1100.74C833.455 1078.04 859.349 1066.06 886.491 1054.4C951.07 1026.65 1008.47 987.561 1050.59 928.923C1066.5 906.54 1073.36 879.743 1083.35 854.838C1100.51 811.963 1122.97 770.98 1132.95 725.583C1139.5 695.318 1140.75 664.108 1138.57 632.582C1136.7 607.046 1139.19 581.195 1137.94 555.344C1135.14 491.032 1124.84 427.98 1100.51 367.766C1089.59 340.654 1071.18 317.956 1053.4 295.572C1026.26 261.209 997.243 228.423 967.917 196.266C942.647 168.524 909.577 150.869 877.444 133.53C820.352 102.95 760.453 78.3603 695.25 71.4247C678.091 69.5331 660.932 68.2721 643.774 66.6958" stroke="#1f3b21" stroke-miterlimit="10" stroke-linecap="round" stroke-linejoin="round"></path>
    <path d="M582.626 523.187C580.13 523.818 577.322 524.763 574.826 524.763C542.381 524.133 523.662 543.679 511.183 570.791C504.008 585.923 500.888 601.371 518.359 613.666C522.726 616.818 527.406 622.493 529.902 628.798C538.013 649.92 557.98 660.009 573.266 674.51C582.626 683.338 593.545 682.077 604.464 679.239C636.286 670.412 658.124 650.866 664.988 617.764C669.355 597.273 665.923 577.096 651.261 561.018C632.854 541.157 614.135 521.926 584.186 523.187" stroke="#1f3b21" stroke-miterlimit="10" stroke-linecap="round" stroke-linejoin="round"></path>
    <path d="M585.745 330.881C547.372 335.295 513.054 349.481 480.921 371.549C461.266 385.105 436.932 389.834 415.406 399.607C383.896 413.794 367.673 439.329 353.322 468.018C339.283 496.706 328.988 526.971 322.749 557.866C319.317 574.575 320.253 592.86 322.437 609.568C327.74 647.084 336.476 683.969 353.01 718.647C369.233 752.379 389.512 782.014 425.077 797.146C448.475 807.234 468.442 821.106 487.784 837.814C509.623 857.045 538.013 858.936 565.467 856.73C604.776 853.892 643.773 845.38 682.458 837.814C709.6 832.455 731.126 815.746 751.093 797.146C782.914 767.197 808.496 731.888 834.702 697.525C844.998 683.969 845.934 664.738 847.493 647.399C850.925 613.351 851.237 578.988 850.613 544.94C849.989 522.557 837.51 503.957 827.215 485.042C800.697 436.492 764.82 398.031 712.096 377.224C693.377 369.973 676.218 358.308 659.06 347.59C636.909 333.718 612.575 329.62 587.305 330.25" stroke="#1f3b21" stroke-miterlimit="10" stroke-linecap="round" stroke-linejoin="round"></path>
    <path d="M584.182 294.629C543.937 302.826 508.684 324.894 470.311 338.765C450.968 345.701 431.938 354.213 412.595 360.518C383.269 369.976 360.807 387.315 345.52 414.427C322.434 455.095 303.404 497.655 294.356 543.682C276.574 634.161 299.972 715.498 352.072 789.583C368.607 812.912 387.637 834.349 409.787 852.634C447.849 884.475 489.965 894.248 537.698 879.431C565.152 870.919 593.541 866.506 621.931 863.984C632.538 863.038 644.393 863.668 654.377 867.136C679.959 876.594 700.861 867.451 721.452 854.211C759.825 829.621 789.15 795.888 818.164 761.21C838.131 737.566 857.161 713.606 868.08 683.972C877.44 658.436 882.119 631.954 884.927 605.158C885.863 594.754 885.551 584.035 886.487 573.632C890.231 530.757 870.576 494.502 854.977 456.987C847.802 439.332 837.195 422.624 830.331 404.654C820.348 378.172 800.694 365.877 775.424 357.05C746.098 346.962 715.836 338.765 686.51 328.992C661.552 320.796 637.218 311.338 613.196 300.619C604.149 296.521 595.101 293.368 585.118 294.314" stroke="#1f3b21" stroke-miterlimit="10" stroke-linecap="round" stroke-linejoin="round"></path>
    <path d="M571.704 401.813C485.911 413.793 436.619 470.224 403.237 545.255C375.471 607.991 392.006 662.53 434.123 712.341C456.273 738.507 481.855 759.945 512.429 775.077C535.515 786.741 558.913 788.318 584.184 781.697C616.005 773.501 647.827 764.043 679.024 753.324C734.244 734.724 760.45 688.066 769.186 632.896C776.049 589.391 773.241 546.2 745.163 508.37C734.868 494.498 723.013 481.888 710.222 471.169C689.943 454.461 666.857 441.535 646.891 424.827C625.052 406.857 601.03 398.976 573.264 401.498" stroke="#1f3b21" stroke-miterlimit="10" stroke-linecap="round" stroke-linejoin="round"></path>
    <path d="M568.585 373.439C547.058 375.015 530.524 388.886 511.181 395.822C505.878 397.714 501.198 400.236 495.27 400.236C474.68 399.92 458.769 409.693 447.226 425.456C429.443 449.416 410.101 472.114 388.886 492.606C376.095 505.216 369.856 519.718 367.672 535.796C359.873 595.064 363.304 652.756 398.246 704.458C404.485 713.601 408.229 724.004 412.285 734.408C423.516 761.52 442.858 780.12 470 789.262C504.006 800.927 538.323 811.015 574.512 811.33C615.069 811.645 651.883 796.513 688.696 780.435C714.902 768.771 740.484 757.421 755.459 730.94C765.13 713.916 772.929 695.946 782.289 679.238C787.592 669.78 791.336 658.746 799.135 650.865C812.862 636.678 810.366 617.763 811.302 600.423C812.238 584.345 809.742 567.952 808.495 551.559C806.623 521.609 788.216 500.802 767.626 482.518C743.292 461.08 717.398 440.904 697.743 414.422C677.465 386.995 647.515 379.429 616.629 375.33C601.342 373.123 585.432 374.069 569.833 373.439" stroke="#1f3b21" stroke-miterlimit="10" stroke-linecap="round" stroke-linejoin="round"></path>
  </g>
</svg>
