<svg width="24" height="27" viewBox="0 0 24 27" fill="none" xmlns="http://www.w3.org/2000/svg">
<path d="M15.1484 7.03516C15.0768 7.03516 15.015 7.01237 14.9629 6.9668C14.9108 6.91471 14.8815 6.84961 14.875 6.77148C14.7969 6.19857 14.7155 5.7526 14.6309 5.43359C14.5527 5.10807 14.429 4.86393 14.2598 4.70117C14.097 4.53841 13.8464 4.41146 13.5078 4.32031C13.1693 4.22917 12.7005 4.125 12.1016 4.00781C11.9258 3.98828 11.8379 3.89388 11.8379 3.72461C11.8379 3.64648 11.8607 3.58138 11.9062 3.5293C11.9583 3.47721 12.0234 3.44792 12.1016 3.44141C12.7005 3.35677 13.1693 3.27539 13.5078 3.19727C13.8464 3.11263 14.1003 2.98568 14.2695 2.81641C14.4388 2.64714 14.5625 2.39648 14.6406 2.06445C14.7188 1.73242 14.7969 1.27669 14.875 0.697266C14.888 0.514974 14.9792 0.423828 15.1484 0.423828C15.3307 0.423828 15.4284 0.518229 15.4414 0.707031C15.513 1.27995 15.5879 1.72591 15.666 2.04492C15.7441 2.36393 15.8711 2.60482 16.0469 2.76758C16.2227 2.93034 16.4798 3.05729 16.8184 3.14844C17.1569 3.23307 17.6191 3.33073 18.2051 3.44141C18.3809 3.46745 18.4688 3.56185 18.4688 3.72461C18.4688 3.89388 18.3678 3.98828 18.166 4.00781C17.5866 4.10547 17.1276 4.19987 16.7891 4.29102C16.457 4.37565 16.2064 4.5026 16.0371 4.67188C15.8678 4.83464 15.7441 5.07878 15.666 5.4043C15.5879 5.72982 15.513 6.17904 15.4414 6.75195C15.4284 6.94076 15.3307 7.03516 15.1484 7.03516ZM8.61523 4.39844C8.49154 4.39844 8.41667 4.33659 8.39062 4.21289C8.31901 3.84831 8.25391 3.5651 8.19531 3.36328C8.14323 3.15495 8.0651 3.00195 7.96094 2.9043C7.86328 2.80013 7.71029 2.71875 7.50195 2.66016C7.30013 2.60156 7.01367 2.53646 6.64258 2.46484C6.50586 2.43229 6.4375 2.35742 6.4375 2.24023C6.4375 2.11654 6.50586 2.03841 6.64258 2.00586C7.01367 1.93424 7.30013 1.86914 7.50195 1.81055C7.70378 1.75195 7.85352 1.67057 7.95117 1.56641C8.05534 1.46224 8.13346 1.30924 8.18555 1.10742C8.24414 0.905599 8.3125 0.625651 8.39062 0.267578C8.41667 0.13737 8.49154 0.0722656 8.61523 0.0722656C8.73242 0.0722656 8.80729 0.13737 8.83984 0.267578C8.91797 0.625651 8.98307 0.905599 9.03516 1.10742C9.09375 1.30924 9.17188 1.46224 9.26953 1.56641C9.36719 1.67057 9.51693 1.75195 9.71875 1.81055C9.92057 1.86914 10.207 1.93424 10.5781 2.00586C10.7148 2.03841 10.7832 2.11654 10.7832 2.24023C10.7832 2.35742 10.7148 2.43229 10.5781 2.46484C10.0833 2.55599 9.72852 2.64388 9.51367 2.72852C9.30534 2.80664 9.16211 2.95312 9.08398 3.16797C9.01237 3.3763 8.93099 3.72461 8.83984 4.21289C8.80729 4.33659 8.73242 4.39844 8.61523 4.39844ZM3.29297 26.127C3.16927 26.127 3.08789 26.0521 3.04883 25.9023C2.95768 25.4271 2.8763 25.0527 2.80469 24.7793C2.73958 24.5124 2.63867 24.3073 2.50195 24.1641C2.36523 24.0273 2.1569 23.9167 1.87695 23.832C1.60352 23.7539 1.21615 23.666 0.714844 23.5684C0.565104 23.5293 0.490234 23.4447 0.490234 23.3145C0.490234 23.1777 0.565104 23.0964 0.714844 23.0703C1.21615 22.9727 1.60352 22.8815 1.87695 22.7969C2.15039 22.7122 2.35221 22.5983 2.48242 22.4551C2.61914 22.3184 2.72331 22.1133 2.79492 21.8398C2.86654 21.5729 2.95117 21.2018 3.04883 20.7266C3.08789 20.5768 3.16927 20.502 3.29297 20.502C3.42969 20.502 3.51107 20.5768 3.53711 20.7266C3.64128 21.2018 3.72917 21.5729 3.80078 21.8398C3.8724 22.1133 3.97656 22.3184 4.11328 22.4551C4.25 22.5983 4.45508 22.7122 4.72852 22.7969C5.00195 22.8815 5.38607 22.9727 5.88086 23.0703C6.0306 23.0964 6.10547 23.1777 6.10547 23.3145C6.10547 23.4447 6.0306 23.5293 5.88086 23.5684C5.37956 23.6595 4.98893 23.7441 4.70898 23.8223C4.43555 23.9069 4.23047 24.0176 4.09375 24.1543C3.95703 24.2975 3.85286 24.5059 3.78125 24.7793C3.70964 25.0527 3.62826 25.4271 3.53711 25.9023C3.51107 26.0521 3.42969 26.127 3.29297 26.127ZM18.3125 23.334C17.3424 24.3105 16.2812 24.9551 15.1289 25.2676C13.9831 25.5866 12.8177 25.5605 11.6328 25.1895C10.4479 24.8184 9.31836 24.0957 8.24414 23.0215L2.30664 17.084C1.91602 16.6999 1.71094 16.2767 1.69141 15.8145C1.67839 15.3457 1.85091 14.9323 2.20898 14.5742C2.35872 14.4245 2.52474 14.3105 2.70703 14.2324C2.89583 14.1478 3.08464 14.1055 3.27344 14.1055L2.50195 13.3438C2.12435 12.9596 1.92904 12.543 1.91602 12.0938C1.90299 11.6445 2.07552 11.2409 2.43359 10.8828C2.70052 10.6159 3.01302 10.4792 3.37109 10.4727C3.07812 10.082 2.93815 9.67513 2.95117 9.25195C2.9707 8.82227 3.14648 8.44141 3.47852 8.10938C3.82357 7.76432 4.20443 7.58529 4.62109 7.57227C5.04427 7.55924 5.45768 7.70573 5.86133 8.01172C5.86133 7.82943 5.90039 7.65365 5.97852 7.48438C6.05664 7.30859 6.16732 7.14909 6.31055 7.00586C6.69466 6.62174 7.12109 6.43294 7.58984 6.43945C8.05859 6.43945 8.49479 6.64128 8.89844 7.04492L14.4355 12.582C14.4746 12.6211 14.5137 12.6243 14.5527 12.5918C14.5788 12.5658 14.582 12.5299 14.5625 12.4844L13.9082 10.9316C13.752 10.541 13.7031 10.1764 13.7617 9.83789C13.8268 9.49284 13.9798 9.20312 14.2207 8.96875C14.5723 8.61068 14.9857 8.42839 15.4609 8.42188C15.9362 8.40885 16.3561 8.58464 16.7207 8.94922C16.929 9.15755 17.1113 9.42122 17.2676 9.74023L19.4648 14.3789C20.2982 16.1302 20.6172 17.7578 20.4219 19.2617C20.2331 20.7656 19.5299 22.123 18.3125 23.334ZM17.3262 22.416C18.2897 21.4525 18.8854 20.3652 19.1133 19.1543C19.3477 17.9368 19.084 16.5273 18.3223 14.9258L16.0566 10.1309C15.946 9.89648 15.8125 9.74023 15.6562 9.66211C15.5 9.57747 15.3307 9.57747 15.1484 9.66211C14.9792 9.74023 14.862 9.86393 14.7969 10.0332C14.7318 10.2025 14.7415 10.3945 14.8262 10.6094L16.0469 13.8223C16.1445 14.0697 16.1738 14.278 16.1348 14.4473C16.0957 14.6165 16.0143 14.763 15.8906 14.8867C15.7474 15.0299 15.5814 15.1016 15.3926 15.1016C15.2038 15.0951 15.0247 15.0072 14.8555 14.8379L8.05859 8.04102C7.90885 7.89128 7.74284 7.81641 7.56055 7.81641C7.37826 7.8099 7.21549 7.87826 7.07227 8.02148C6.92904 8.16471 6.85742 8.32747 6.85742 8.50977C6.86393 8.69206 6.94206 8.85482 7.0918 8.99805L12.0137 13.9297C12.1374 14.0469 12.196 14.1901 12.1895 14.3594C12.1829 14.5286 12.1178 14.6751 11.9941 14.7988C11.877 14.916 11.7337 14.9779 11.5645 14.9844C11.4017 14.9844 11.2617 14.9258 11.1445 14.8086L5.36328 9.02734C5.21354 8.8776 5.04427 8.79948 4.85547 8.79297C4.67318 8.78646 4.51367 8.85482 4.37695 8.99805C4.23372 9.14128 4.16211 9.30729 4.16211 9.49609C4.16862 9.67839 4.24674 9.84115 4.39648 9.98438L10.1777 15.7656C10.3014 15.8958 10.3568 16.0456 10.3438 16.2148C10.3372 16.3776 10.2754 16.5176 10.1582 16.6348C10.041 16.752 9.89779 16.8171 9.72852 16.8301C9.56576 16.8366 9.42253 16.7747 9.29883 16.6445L4.37695 11.7227C4.22721 11.5729 4.05794 11.498 3.86914 11.498C3.68685 11.498 3.52409 11.5697 3.38086 11.7129C3.23763 11.8561 3.16927 12.0189 3.17578 12.2012C3.18229 12.377 3.26042 12.5365 3.41016 12.6797L8.68359 17.9629C8.8138 18.0866 8.8724 18.2331 8.85938 18.4023C8.84635 18.5716 8.78125 18.7148 8.66406 18.832C8.55339 18.9427 8.41341 19.0046 8.24414 19.0176C8.08138 19.0241 7.9349 18.9655 7.80469 18.8418L4.2793 15.3066C4.13607 15.1634 3.97005 15.0918 3.78125 15.0918C3.59896 15.0918 3.4362 15.1602 3.29297 15.2969C3.14974 15.4401 3.08138 15.6029 3.08789 15.7852C3.0944 15.9609 3.16927 16.1237 3.3125 16.2734L9.04492 21.9961C9.9694 22.9271 10.9134 23.5553 11.877 23.8809C12.8405 24.2129 13.7845 24.2552 14.709 24.0078C15.64 23.7604 16.5124 23.2298 17.3262 22.416ZM8.81055 6.12695C9.19466 5.74284 9.61784 5.55404 10.0801 5.56055C10.5488 5.56055 10.985 5.76237 11.3887 6.16602L14.6602 9.42773L13.8691 10.4824L10.5488 7.16211C10.4056 7.01237 10.2428 6.93424 10.0605 6.92773C9.87826 6.92122 9.71549 6.98958 9.57227 7.13281C9.42904 7.27604 9.35742 7.44206 9.35742 7.63086C9.36393 7.81315 9.4388 7.97591 9.58203 8.11914L8.35156 7.13281C8.35807 6.95052 8.40039 6.77148 8.47852 6.5957C8.55664 6.41992 8.66732 6.26367 8.81055 6.12695ZM20.8027 22.4648C20.0736 23.194 19.2891 23.7376 18.4492 24.0957C17.6159 24.4538 16.7598 24.6198 15.8809 24.5938L17.3066 23.0898C18.1921 22.8359 19.0286 22.3151 19.8164 21.5273C20.7865 20.5703 21.3854 19.4831 21.6133 18.2656C21.8411 17.0482 21.5775 15.6419 20.8223 14.0469L18.6055 9.36914C18.4492 9.03711 18.2214 8.87109 17.9219 8.87109C17.7135 8.87109 17.5475 8.9362 17.4238 9.06641C17.3001 9.19661 17.2383 9.33984 17.2383 9.49609C17.2383 9.63281 17.2708 9.77279 17.3359 9.91602L16.1836 9.59375C16.1706 9.48958 16.1641 9.37891 16.1641 9.26172C16.1641 8.94271 16.2227 8.67253 16.3398 8.45117C16.457 8.22982 16.6035 8.05404 16.7793 7.92383C16.9616 7.78711 17.1504 7.68945 17.3457 7.63086C17.5475 7.57227 17.7266 7.54297 17.8828 7.54297C18.2799 7.54297 18.6413 7.65365 18.9668 7.875C19.2923 8.09635 19.556 8.42188 19.7578 8.85156L21.9648 13.5C22.7982 15.2578 23.1172 16.8887 22.9219 18.3926C22.7266 19.89 22.0202 21.2474 20.8027 22.4648Z" fill="black" style="fill:black;fill-opacity:1;"/>
</svg>
