<?xml version="1.0" encoding="UTF-8"?>
<svg width="143px" height="36px" viewBox="0 0 143 36" version="1.1" xmlns="http://www.w3.org/2000/svg" xmlns:xlink="http://www.w3.org/1999/xlink">
    <!-- Generator: Sketch 55.2 (78181) - https://sketchapp.com -->
    <title>Combined Shape Copy</title>
    <desc>Created with Sketch.</desc>
    <g id="Logo" stroke="none" stroke-width="1" fill="none" fill-rule="evenodd">
        <g id="Artboard-Copy-4" transform="translate(-483.000000, -69.000000)" fill="#000000">
            <g id="Group-7" transform="translate(93.000000, 69.000000)">
                <path d="M525.889674,0.357142857 L533,0.357142857 L533,7.3 L533,14.2428571 L525.889674,14.2428571 L525.889674,21.1857143 L518.779348,21.1857143 L518.779348,28.1285714 L511.669022,28.1285714 L511.669022,35.0714286 L504.558696,35.0714286 L497.44837,35.0714286 L490.338043,35.0714286 L483.227717,35.0714286 L483.227717,28.1285714 L478.961522,28.1285714 L478.961522,21.1857143 L483.227717,21.1857143 L483.227717,14.2428571 L490.338043,14.2428571 L490.338043,21.1857143 L487.493913,21.1857143 L487.493913,28.1285714 L490.338043,28.1285714 L490.338043,21.1857143 L497.44837,21.1857143 L497.44837,14.2428571 L490.338043,14.2428571 L490.338043,7.3 L483.227717,7.3 L483.227717,14.2428571 L478.961522,14.2428571 L478.961522,21.1857143 L470.42913,21.1857143 L470.42913,14.2428571 L476.117391,14.2428571 L476.117391,7.3 L470.42913,7.3 L470.42913,14.2428571 L461.896739,14.2428571 L454.786413,14.2428571 L454.786413,21.1857143 L447.676087,21.1857143 L447.676087,28.1285714 L440.565761,28.1285714 L440.565761,35.0714286 L433.455435,35.0714286 L426.345109,35.0714286 L419.234783,35.0714286 L412.124457,35.0714286 L412.124457,28.1285714 L405.01413,28.1285714 L405.01413,21.1857143 L397.903804,21.1857143 L397.903804,14.2428571 L405.01413,14.2428571 L405.01413,7.3 L397.903804,7.3 L397.903804,14.2428571 L390.793478,14.2428571 L390.793478,7.3 L390.793478,0.357142857 L397.903804,0.357142857 L405.01413,0.357142857 L412.124457,0.357142857 L419.234783,0.357142857 L426.345109,0.357142857 L433.455435,0.357142857 L440.565761,0.357142857 L447.676087,0.357142857 L454.786413,0.357142857 L461.896739,0.357142857 L469.007065,0.357142857 L476.117391,0.357142857 L483.227717,0.357142857 L490.338043,0.357142857 L497.44837,0.357142857 L504.558696,0.357142857 L511.669022,0.357142857 L518.779348,0.357142857 L525.889674,0.357142857 Z M498.870435,28.1285714 L503.13663,28.1285714 L503.13663,21.1857143 L498.870435,21.1857143 L498.870435,28.1285714 Z M432.03337,28.1285714 L432.03337,21.1857143 L426.345109,21.1857143 L426.345109,14.2428571 L419.234783,14.2428571 L419.234783,7.3 L413.546522,7.3 L413.546522,14.2428571 L419.234783,14.2428571 L419.234783,21.1857143 L413.546522,21.1857143 L413.546522,28.1285714 L419.234783,28.1285714 L419.234783,21.1857143 L426.345109,21.1857143 L426.345109,28.1285714 L432.03337,28.1285714 Z M412.124457,21.1857143 L412.124457,14.2428571 L406.436196,14.2428571 L406.436196,21.1857143 L412.124457,21.1857143 Z" id="Combined-Shape-Copy"></path>
            </g>
        </g>
    </g>
</svg>