<svg width="22" height="20" viewBox="0 0 22 20" fill="none" xmlns="http://www.w3.org/2000/svg">
<path d="M8.16016 19.5586C8.06901 19.5586 7.99089 19.5293 7.92578 19.4707C7.86719 19.4186 7.83464 19.3503 7.82812 19.2656C7.73698 18.6146 7.64583 18.1068 7.55469 17.7422C7.47005 17.3776 7.33008 17.1042 7.13477 16.9219C6.94596 16.7331 6.65951 16.5866 6.27539 16.4824C5.89128 16.3783 5.36393 16.2643 4.69336 16.1406C4.49154 16.1016 4.39062 15.9909 4.39062 15.8086C4.39062 15.7174 4.41992 15.6426 4.47852 15.584C4.53711 15.5254 4.60872 15.4896 4.69336 15.4766C5.36393 15.3854 5.89128 15.2943 6.27539 15.2031C6.65951 15.1055 6.94596 14.9622 7.13477 14.7734C7.33008 14.5781 7.47331 14.2949 7.56445 13.9238C7.6556 13.5462 7.74349 13.0254 7.82812 12.3613C7.85417 12.1595 7.96484 12.0586 8.16016 12.0586C8.35547 12.0586 8.46289 12.1628 8.48242 12.3711C8.56706 13.0221 8.65169 13.5299 8.73633 13.8945C8.82747 14.2591 8.9707 14.5326 9.16602 14.7148C9.36784 14.8971 9.66081 15.0404 10.0449 15.1445C10.429 15.2422 10.9531 15.3529 11.6172 15.4766C11.819 15.5156 11.9199 15.6263 11.9199 15.8086C11.9199 15.9909 11.806 16.1016 11.5781 16.1406C10.9141 16.2448 10.3932 16.3457 10.0156 16.4434C9.63802 16.541 9.35156 16.6842 9.15625 16.873C8.96745 17.0618 8.82747 17.3418 8.73633 17.7129C8.65169 18.084 8.56706 18.5951 8.48242 19.2461C8.46289 19.4544 8.35547 19.5586 8.16016 19.5586ZM3.52148 11.0527C3.44987 11.0527 3.39453 11.0332 3.35547 10.9941C3.31641 10.9486 3.29036 10.8932 3.27734 10.8281C3.19271 10.3659 3.11458 10.0013 3.04297 9.73438C2.97135 9.46094 2.86719 9.2526 2.73047 9.10938C2.59375 8.95964 2.38867 8.8457 2.11523 8.76758C1.8418 8.68945 1.46094 8.60807 0.972656 8.52344C0.822917 8.4974 0.748047 8.41602 0.748047 8.2793C0.748047 8.14258 0.822917 8.0612 0.972656 8.03516C1.46094 7.95052 1.8418 7.86914 2.11523 7.79102C2.38867 7.70638 2.59375 7.59245 2.73047 7.44922C2.86719 7.30599 2.97135 7.10091 3.04297 6.83398C3.11458 6.56055 3.19271 6.18945 3.27734 5.7207C3.30339 5.57747 3.38477 5.50586 3.52148 5.50586C3.65169 5.50586 3.72982 5.57747 3.75586 5.7207C3.84049 6.18945 3.91862 6.56055 3.99023 6.83398C4.06185 7.10091 4.16602 7.30599 4.30273 7.44922C4.43945 7.59245 4.64453 7.70638 4.91797 7.79102C5.19141 7.86914 5.57552 7.95052 6.07031 8.03516C6.22005 8.0612 6.29492 8.14258 6.29492 8.2793C6.29492 8.41602 6.22005 8.4974 6.07031 8.52344C5.57552 8.60807 5.19141 8.68945 4.91797 8.76758C4.64453 8.8457 4.43945 8.95964 4.30273 9.10938C4.16602 9.2526 4.06185 9.46094 3.99023 9.73438C3.91862 10.0013 3.84049 10.3659 3.75586 10.8281C3.72982 10.9779 3.65169 11.0527 3.52148 11.0527ZM8.87305 4.80273C8.76237 4.80273 8.69401 4.74414 8.66797 4.62695C8.58984 4.23633 8.51823 3.93034 8.45312 3.70898C8.38802 3.48112 8.29688 3.30859 8.17969 3.19141C8.06901 3.06771 7.89974 2.97331 7.67188 2.9082C7.45052 2.83659 7.13477 2.75846 6.72461 2.67383C6.60091 2.6543 6.53906 2.58919 6.53906 2.47852C6.53906 2.36784 6.60091 2.29948 6.72461 2.27344C7.13477 2.1888 7.45052 2.11393 7.67188 2.04883C7.89974 1.97721 8.06901 1.88281 8.17969 1.76562C8.29688 1.64193 8.38802 1.4694 8.45312 1.24805C8.51823 1.02669 8.58984 0.720703 8.66797 0.330078C8.69401 0.20638 8.76237 0.144531 8.87305 0.144531C8.97721 0.144531 9.04232 0.20638 9.06836 0.330078C9.15299 0.720703 9.22461 1.02669 9.2832 1.24805C9.34831 1.4694 9.4362 1.64193 9.54688 1.76562C9.66406 1.88281 9.83659 1.97721 10.0645 2.04883C10.2923 2.11393 10.6081 2.1888 11.0117 2.27344C11.1354 2.29948 11.1973 2.36784 11.1973 2.47852C11.1973 2.58919 11.1354 2.6543 11.0117 2.67383C10.6081 2.75846 10.2923 2.83659 10.0645 2.9082C9.83659 2.97331 9.66406 3.06771 9.54688 3.19141C9.4362 3.30859 9.34831 3.48112 9.2832 3.70898C9.22461 3.93034 9.15299 4.23633 9.06836 4.62695C9.04232 4.74414 8.97721 4.80273 8.87305 4.80273ZM16.9395 8.25C16.8027 8.25 16.7214 8.17839 16.6953 8.03516C16.6107 7.56641 16.5326 7.19857 16.4609 6.93164C16.3893 6.6582 16.2852 6.44987 16.1484 6.30664C16.0117 6.16341 15.8066 6.05273 15.5332 5.97461C15.2598 5.88997 14.8789 5.80534 14.3906 5.7207C14.2409 5.69466 14.166 5.61328 14.166 5.47656C14.166 5.41146 14.1855 5.35938 14.2246 5.32031C14.2702 5.27474 14.3255 5.24544 14.3906 5.23242C14.8789 5.14779 15.2598 5.06641 15.5332 4.98828C15.8066 4.91016 16.0117 4.79948 16.1484 4.65625C16.2852 4.50651 16.3893 4.29818 16.4609 4.03125C16.5326 3.75781 16.6107 3.38997 16.6953 2.92773C16.7214 2.77799 16.8027 2.70312 16.9395 2.70312C17.0697 2.70312 17.1478 2.77799 17.1738 2.92773C17.2585 3.38997 17.3366 3.75781 17.4082 4.03125C17.4798 4.29818 17.584 4.50651 17.7207 4.65625C17.8574 4.79948 18.0625 4.91016 18.3359 4.98828C18.6159 5.06641 19 5.14779 19.4883 5.23242C19.638 5.25846 19.7129 5.33984 19.7129 5.47656C19.7129 5.61328 19.638 5.69466 19.4883 5.7207C19 5.80534 18.6159 5.88997 18.3359 5.97461C18.0625 6.05273 17.8574 6.16341 17.7207 6.30664C17.584 6.44987 17.4798 6.6582 17.4082 6.93164C17.3366 7.19857 17.2585 7.56641 17.1738 8.03516C17.1478 8.17839 17.0697 8.25 16.9395 8.25ZM20.1914 19.4023L10.9141 10.0957C10.7122 9.88737 10.6113 9.63672 10.6113 9.34375C10.6113 9.05078 10.7122 8.79688 10.9141 8.58203C11.1094 8.3737 11.3568 8.26953 11.6562 8.26953C11.9622 8.26953 12.2161 8.3737 12.418 8.58203L21.7051 17.8984C21.9004 18.1068 21.998 18.3542 21.998 18.6406C22.0046 18.9336 21.9069 19.1875 21.7051 19.4023C21.5098 19.6107 21.2591 19.7148 20.9531 19.7148C20.6536 19.7148 20.3997 19.6107 20.1914 19.4023ZM14.5176 12.6934L15.0059 12.2246L12.1348 9.35352C12.0436 9.26237 11.9492 9.21029 11.8516 9.19727C11.7539 9.17773 11.6693 9.20703 11.5977 9.28516C11.513 9.36979 11.4772 9.46094 11.4902 9.55859C11.5098 9.64974 11.5651 9.73763 11.6562 9.82227L14.5176 12.6934Z" fill="black" style="fill:black;fill-opacity:1;"/>
</svg>
